<mxfile host="app.diagrams.net" modified="2024-05-06T14:54:59.507Z" agent="Mozilla/5.0 (Windows NT 10.0; Win64; x64) AppleWebKit/537.36 (KHTML, like Gecko) Chrome/124.0.0.0 Safari/537.36" etag="0QcZhOF9gA4ukumzC3pe" version="24.3.1" type="device">
  <diagram name="Page-1" id="qiSoF1RUGOgjxG2yo1wj">
    <mxGraphModel dx="1050" dy="557" grid="1" gridSize="10" guides="1" tooltips="1" connect="1" arrows="1" fold="1" page="1" pageScale="1" pageWidth="850" pageHeight="1100" math="0" shadow="0">
      <root>
        <mxCell id="0" />
        <mxCell id="1" parent="0" />
        <mxCell id="mlzsbg8BFO5pxjVVyDcR-4" value="" style="edgeStyle=orthogonalEdgeStyle;rounded=0;orthogonalLoop=1;jettySize=auto;html=1;" parent="1" source="mlzsbg8BFO5pxjVVyDcR-2" target="mlzsbg8BFO5pxjVVyDcR-3" edge="1">
          <mxGeometry relative="1" as="geometry" />
        </mxCell>
        <mxCell id="mlzsbg8BFO5pxjVVyDcR-2" value="User" style="shape=umlActor;verticalLabelPosition=bottom;verticalAlign=top;html=1;outlineConnect=0;fillColor=#dae8fc;strokeColor=#6c8ebf;" parent="1" vertex="1">
          <mxGeometry x="70" y="90" width="30" height="60" as="geometry" />
        </mxCell>
        <mxCell id="mlzsbg8BFO5pxjVVyDcR-6" value="" style="edgeStyle=orthogonalEdgeStyle;rounded=0;orthogonalLoop=1;jettySize=auto;html=1;" parent="1" source="mlzsbg8BFO5pxjVVyDcR-3" target="mlzsbg8BFO5pxjVVyDcR-5" edge="1">
          <mxGeometry relative="1" as="geometry">
            <Array as="points">
              <mxPoint x="200" y="50" />
            </Array>
          </mxGeometry>
        </mxCell>
        <mxCell id="mlzsbg8BFO5pxjVVyDcR-10" value="False" style="edgeLabel;html=1;align=center;verticalAlign=middle;resizable=0;points=[];" parent="mlzsbg8BFO5pxjVVyDcR-6" vertex="1" connectable="0">
          <mxGeometry x="-0.2733" y="1" relative="1" as="geometry">
            <mxPoint x="31" y="1" as="offset" />
          </mxGeometry>
        </mxCell>
        <mxCell id="mlzsbg8BFO5pxjVVyDcR-8" value="" style="edgeStyle=orthogonalEdgeStyle;rounded=0;orthogonalLoop=1;jettySize=auto;html=1;" parent="1" edge="1">
          <mxGeometry relative="1" as="geometry">
            <Array as="points">
              <mxPoint x="200" y="190" />
            </Array>
            <mxPoint x="200" y="150" as="sourcePoint" />
            <mxPoint x="305" y="190" as="targetPoint" />
          </mxGeometry>
        </mxCell>
        <mxCell id="mlzsbg8BFO5pxjVVyDcR-11" value="True" style="edgeLabel;html=1;align=center;verticalAlign=middle;resizable=0;points=[];" parent="mlzsbg8BFO5pxjVVyDcR-8" vertex="1" connectable="0">
          <mxGeometry x="-0.762" relative="1" as="geometry">
            <mxPoint x="50" y="23" as="offset" />
          </mxGeometry>
        </mxCell>
        <mxCell id="mlzsbg8BFO5pxjVVyDcR-3" value="Registered" style="rhombus;whiteSpace=wrap;html=1;verticalAlign=middle;fillColor=#fff2cc;strokeColor=#d6b656;" parent="1" vertex="1">
          <mxGeometry x="160" y="80" width="80" height="80" as="geometry" />
        </mxCell>
        <mxCell id="mlzsbg8BFO5pxjVVyDcR-9" value="" style="edgeStyle=orthogonalEdgeStyle;rounded=0;orthogonalLoop=1;jettySize=auto;html=1;" parent="1" source="mlzsbg8BFO5pxjVVyDcR-5" target="mlzsbg8BFO5pxjVVyDcR-7" edge="1">
          <mxGeometry relative="1" as="geometry" />
        </mxCell>
        <mxCell id="mlzsbg8BFO5pxjVVyDcR-5" value="Register" style="whiteSpace=wrap;html=1;rounded=1;fillColor=#f8cecc;strokeColor=#b85450;" parent="1" vertex="1">
          <mxGeometry x="305" y="20" width="120" height="60" as="geometry" />
        </mxCell>
        <mxCell id="mlzsbg8BFO5pxjVVyDcR-13" value="" style="edgeStyle=orthogonalEdgeStyle;rounded=0;orthogonalLoop=1;jettySize=auto;html=1;" parent="1" source="mlzsbg8BFO5pxjVVyDcR-7" target="mlzsbg8BFO5pxjVVyDcR-12" edge="1">
          <mxGeometry relative="1" as="geometry" />
        </mxCell>
        <mxCell id="mlzsbg8BFO5pxjVVyDcR-7" value="Login" style="whiteSpace=wrap;html=1;rounded=1;fillColor=#d5e8d4;strokeColor=#82b366;" parent="1" vertex="1">
          <mxGeometry x="305" y="160" width="120" height="60" as="geometry" />
        </mxCell>
        <mxCell id="mlzsbg8BFO5pxjVVyDcR-15" value="" style="edgeStyle=orthogonalEdgeStyle;rounded=0;orthogonalLoop=1;jettySize=auto;html=1;" parent="1" source="mlzsbg8BFO5pxjVVyDcR-12" target="mlzsbg8BFO5pxjVVyDcR-14" edge="1">
          <mxGeometry relative="1" as="geometry">
            <Array as="points">
              <mxPoint x="550" y="260" />
              <mxPoint x="550" y="260" />
            </Array>
          </mxGeometry>
        </mxCell>
        <mxCell id="mlzsbg8BFO5pxjVVyDcR-16" value="Emotion Recognized" style="edgeLabel;html=1;align=center;verticalAlign=middle;resizable=0;points=[];" parent="mlzsbg8BFO5pxjVVyDcR-15" vertex="1" connectable="0">
          <mxGeometry x="-0.045" y="-1" relative="1" as="geometry">
            <mxPoint x="1" y="2" as="offset" />
          </mxGeometry>
        </mxCell>
        <mxCell id="mlzsbg8BFO5pxjVVyDcR-12" value="Real-Time&amp;nbsp;&lt;div&gt;Face Emotion Recognition&lt;/div&gt;" style="whiteSpace=wrap;html=1;rounded=1;fillColor=#e1d5e7;strokeColor=#9673a6;" parent="1" vertex="1">
          <mxGeometry x="490" y="160" width="120" height="60" as="geometry" />
        </mxCell>
        <mxCell id="mlzsbg8BFO5pxjVVyDcR-26" value="" style="edgeStyle=orthogonalEdgeStyle;rounded=0;orthogonalLoop=1;jettySize=auto;html=1;" parent="1" source="mlzsbg8BFO5pxjVVyDcR-14" target="mlzsbg8BFO5pxjVVyDcR-25" edge="1">
          <mxGeometry relative="1" as="geometry" />
        </mxCell>
        <mxCell id="mlzsbg8BFO5pxjVVyDcR-31" value="" style="edgeStyle=orthogonalEdgeStyle;rounded=0;orthogonalLoop=1;jettySize=auto;html=1;" parent="1" source="mlzsbg8BFO5pxjVVyDcR-14" target="mlzsbg8BFO5pxjVVyDcR-30" edge="1">
          <mxGeometry relative="1" as="geometry" />
        </mxCell>
        <mxCell id="mlzsbg8BFO5pxjVVyDcR-33" value="" style="edgeStyle=orthogonalEdgeStyle;rounded=0;orthogonalLoop=1;jettySize=auto;html=1;" parent="1" source="mlzsbg8BFO5pxjVVyDcR-14" target="mlzsbg8BFO5pxjVVyDcR-32" edge="1">
          <mxGeometry relative="1" as="geometry" />
        </mxCell>
        <mxCell id="tOl8azXJ3fjY00oLeOgr-6" value="" style="edgeStyle=orthogonalEdgeStyle;rounded=0;orthogonalLoop=1;jettySize=auto;html=1;entryX=0.5;entryY=1;entryDx=0;entryDy=0;" edge="1" parent="1" source="mlzsbg8BFO5pxjVVyDcR-14" target="mlzsbg8BFO5pxjVVyDcR-20">
          <mxGeometry relative="1" as="geometry">
            <mxPoint x="690" y="360" as="targetPoint" />
          </mxGeometry>
        </mxCell>
        <mxCell id="mlzsbg8BFO5pxjVVyDcR-14" value="Products Recommended&amp;nbsp;&lt;div&gt;based on Emotion&lt;/div&gt;" style="whiteSpace=wrap;html=1;rounded=1;fillColor=#f8cecc;strokeColor=#b85450;" parent="1" vertex="1">
          <mxGeometry x="490" y="330" width="120" height="60" as="geometry" />
        </mxCell>
        <mxCell id="tOl8azXJ3fjY00oLeOgr-10" value="" style="edgeStyle=orthogonalEdgeStyle;rounded=0;orthogonalLoop=1;jettySize=auto;html=1;entryX=1;entryY=0.5;entryDx=0;entryDy=0;" edge="1" parent="1" source="mlzsbg8BFO5pxjVVyDcR-20" target="mlzsbg8BFO5pxjVVyDcR-12">
          <mxGeometry relative="1" as="geometry">
            <mxPoint x="720" y="136" as="targetPoint" />
            <Array as="points">
              <mxPoint x="720" y="190" />
            </Array>
          </mxGeometry>
        </mxCell>
        <mxCell id="tOl8azXJ3fjY00oLeOgr-11" value="True" style="edgeLabel;html=1;align=center;verticalAlign=middle;resizable=0;points=[];" vertex="1" connectable="0" parent="tOl8azXJ3fjY00oLeOgr-10">
          <mxGeometry x="-0.2556" relative="1" as="geometry">
            <mxPoint x="-35" as="offset" />
          </mxGeometry>
        </mxCell>
        <mxCell id="mlzsbg8BFO5pxjVVyDcR-20" value="Change Recognized Emotion" style="rhombus;whiteSpace=wrap;html=1;fillColor=#fff2cc;strokeColor=#d6b656;" parent="1" vertex="1">
          <mxGeometry x="670" y="231" width="100" height="90" as="geometry" />
        </mxCell>
        <mxCell id="mlzsbg8BFO5pxjVVyDcR-29" value="" style="edgeStyle=orthogonalEdgeStyle;rounded=0;orthogonalLoop=1;jettySize=auto;html=1;entryX=0.5;entryY=1;entryDx=0;entryDy=0;" parent="1" source="mlzsbg8BFO5pxjVVyDcR-25" target="mlzsbg8BFO5pxjVVyDcR-14" edge="1">
          <mxGeometry relative="1" as="geometry">
            <mxPoint x="660" y="630" as="targetPoint" />
          </mxGeometry>
        </mxCell>
        <mxCell id="mlzsbg8BFO5pxjVVyDcR-25" value="Cart" style="whiteSpace=wrap;html=1;rounded=1;fillColor=#ffe6cc;strokeColor=#d79b00;" parent="1" vertex="1">
          <mxGeometry x="400" y="480" width="120" height="60" as="geometry" />
        </mxCell>
        <mxCell id="mlzsbg8BFO5pxjVVyDcR-30" value="Profile" style="whiteSpace=wrap;html=1;rounded=1;fillColor=#dae8fc;strokeColor=#6c8ebf;" parent="1" vertex="1">
          <mxGeometry x="580" y="480" width="120" height="60" as="geometry" />
        </mxCell>
        <mxCell id="mlzsbg8BFO5pxjVVyDcR-32" value="Logout" style="whiteSpace=wrap;html=1;rounded=1;fillColor=#d5e8d4;strokeColor=#82b366;" parent="1" vertex="1">
          <mxGeometry x="140" y="330" width="120" height="60" as="geometry" />
        </mxCell>
      </root>
    </mxGraphModel>
  </diagram>
</mxfile>
